HIERARCHY
ROOT Hips
{
  OFFSET 123.917 100.801 -182.33
  CHANNELS 6 Xposition Yposition Zposition Zrotation Xrotation Yrotation
  JOINT RightUpLeg
  {
    OFFSET -8.9458 -8.66707 0.101652
    CHANNELS 3 Zrotation Xrotation Yrotation
    JOINT RightLeg
    {
      OFFSET 0 -44.4227 1.3727
      CHANNELS 3 Zrotation Xrotation Yrotation
      JOINT RightFoot
      {
        OFFSET 0.253549 -42.0924 -1.46059
        CHANNELS 3 Zrotation Xrotation Yrotation
        JOINT RightToes
        {
          OFFSET 0.04 -4.41509 8.4991
          CHANNELS 3 Zrotation Xrotation Yrotation
          End Site
          {
            OFFSET -0.08 -0.137448 9.77979
          }
        }
      }
    }
  }
  JOINT Spine
  {
    OFFSET 0 11.8905 0
    CHANNELS 3 Zrotation Xrotation Yrotation
    JOINT Spine1
    {
      OFFSET 0 25.6574 0.127663
      CHANNELS 3 Zrotation Xrotation Yrotation
      JOINT HEad
      {
        OFFSET 0 8.73416 0.011341
        CHANNELS 3 Zrotation Xrotation Yrotation
        End Site
        {
          OFFSET -0.29 12.7742 2.51395
        }
      }
      JOINT LeftShoulder1
      {
        OFFSET 8.99 -0.362252 -0.22
        CHANNELS 3 Zrotation Xrotation Yrotation
        JOINT LeftArm
        {
          OFFSET 10.2827 -0.00338 0.322123
          CHANNELS 3 Zrotation Xrotation Yrotation
          JOINT LeftForeArm
          {
            OFFSET 32.7669 0.099144 -1.42434
            CHANNELS 3 Zrotation Xrotation Yrotation
            JOINT LeftHand
            {
              OFFSET 27.5643 0.085362 1.02216
              CHANNELS 3 Zrotation Xrotation Yrotation
              End Site
              {
                OFFSET 16.7443 -0.6 1.50291
              }
            }
          }
        }
      }
      JOINT RightShoulder
      {
        OFFSET -8.99 -0.362252 -0.22
        CHANNELS 3 Zrotation Xrotation Yrotation
        JOINT RightArm
        {
          OFFSET -10.2827 -0.00338 0.322123
          CHANNELS 3 Zrotation Xrotation Yrotation
          JOINT RightForeArm
          {
            OFFSET -32.8971 0.099144 -1.42434
            CHANNELS 3 Zrotation Xrotation Yrotation
            JOINT RightHand
            {
              OFFSET -27.4921 0.085362 1.02216
              CHANNELS 3 Zrotation Xrotation Yrotation
              End Site
              {
                OFFSET -16.6312 -0.6 1.50291
              }
            }
          }
        }
      }
    }
  }
  JOINT LeftUpLeg
  {
    OFFSET 8.9458 -8.66707 0.101652
    CHANNELS 3 Zrotation Xrotation Yrotation
    JOINT LeftLeg
    {
      OFFSET 0 -44.4227 1.3727
      CHANNELS 3 Zrotation Xrotation Yrotation
      JOINT LeftFoot
      {
        OFFSET -0.253549 -42.0924 -1.46059
        CHANNELS 3 Zrotation Xrotation Yrotation
        JOINT LeftToes
        {
          OFFSET -0.04 -4.41509 8.4991
          CHANNELS 3 Zrotation Xrotation Yrotation
          End Site
          {
            OFFSET 0.08 -0.047448 9.77979
          }
        }
      }
    }
  }
}
MOTION
Frames:	7
Frame Time:	0.0166667
131.994 95.6782 272.437 -0.153536 3.9708 178.607 8.5098 -0.986684 10.7828 3.41863 19.7669 -10.4873 5.60429 -9.94285 0.0851851 -4.00183 -0.65751 1.74192 1.06892 4.98919 1.01498 4.41202 5.66733 0.120844 -12.2502 33.0042 3.11609 2.03133e-015 2.38542e-015 -1.49089e-016 -137.334 -70.6386 -56.8005 4.52253 10.3094 2.66748 0.368473 9.90896 -0.00117933 13.1468 -0.568801 -6.32335 133.118 -45.9055 56.6651 -20.98 0.680366 11.4734 -0.369625 9.91382 0.00119893 -1.38829 -21.1308 -22.8131 -10.2915 26.7356 18.3067 -2.58599 -4.5082 0.0367205 -10.3083 -3.73211 4.28698 
132.008 95.748 270.935 -0.334749 4.20507 178.269 8.15967 0.493074 10.36 3.36209 19.2369 -10.2445 5.79629 -10.1962 0.111508 -3.54483 -2.28828 1.53587 0.903795 4.80327 1.14187 4.22253 6.211 0.237448 -12.4727 32.4842 3.05335 6.21202e-016 7.95139e-016 -9.93923e-017 -138.021 -71.3303 -57.2194 5.00758 10.2356 2.47035 0.368473 9.90896 -0.00117933 13.321 -0.590773 -6.41033 132.811 -44.6012 56.5741 -21.1026 0.803713 11.1396 -0.369625 9.91382 0.00119893 -1.3443 -20.7819 -22.7338 -8.78226 21.4794 17.5934 -2.77976 -3.05315 0.0698749 -10.0774 -2.30995 3.87908 
132.011 95.7927 269.434 -0.510967 4.44477 177.88 7.83804 1.92925 10.048 3.30929 18.825 -9.97275 5.88838 -10.3633 0.127817 -2.97461 -3.69689 1.31733 0.730932 4.63757 1.2761 4.03491 6.82972 0.371644 -12.6687 31.9027 2.9945 -1.75179e-015 0 4.96962e-017 -138.852 -71.9602 -57.722 5.49052 10.1594 2.27395 0.368473 9.90896 -0.00117933 13.5449 -0.623331 -6.53913 132.469 -43.2324 56.5028 -21.2122 0.946506 10.7601 -0.369625 9.91382 0.00119893 -1.30478 -20.399 -22.5462 -7.42279 16.4417 17.1239 -2.99979 -1.75323 0.100786 -9.70129 -0.541814 3.32707 
131.99 95.7757 267.952 -0.704123 4.68056 177.327 7.52885 3.24503 10.1029 3.23534 18.67 -9.61955 5.65163 -10.1602 0.107542 -1.90277 -4.44152 1.02585 0.476421 4.54806 1.42904 3.84477 7.65167 0.551528 -12.7925 31.0965 2.97279 1.98785e-016 -1.59028e-015 2.98177e-016 -140.175 -72.4477 -58.5233 6.00571 10.0696 2.06425 0.368473 9.90896 -0.00117933 13.9265 -0.687244 -6.79264 131.981 -41.6257 56.4169 -21.2727 1.15604 10.2326 -0.369625 9.91382 0.00119893 -1.27349 -19.925 -22.0995 -6.19543 11.8772 16.9815 -3.34204 -0.797912 0.129075 -8.65602 2.61646 2.17063 
131.945 95.7068 266.433 -0.83423 4.96213 176.746 7.25353 4.47089 10.1682 3.20028 18.8329 -9.21126 5.37192 -10.0927 0.0901057 -0.981612 -4.95724 0.78722 0.327096 4.44777 1.59616 3.6732 8.59246 0.763546 -12.8705 30.3086 2.901 2.13694e-015 3.18055e-015 -9.93923e-017 -141.38 -72.7855 -59.1455 6.44368 9.99076 1.88585 0.368473 9.90896 -0.00117933 14.3404 -0.7624 -7.08951 131.504 -40.0269 56.3951 -21.3406 1.36802 9.68114 -0.369625 9.91382 0.00119893 -1.27532 -19.3854 -21.4175 -5.03648 8.00018 16.87 -3.61457 -0.239351 0.147229 -7.81258 5.41767 1.20487 
131.866 95.5857 264.825 -0.834265 5.36717 176.224 7.05441 5.58358 9.95707 3.27836 19.5345 -8.78347 5.33677 -10.7858 0.120111 -0.903605 -5.57146 0.747406 0.509723 4.24241 1.7753 3.49827 9.69099 1.0225 -12.9354 29.732 2.68005 -1.2424e-015 -1.59028e-015 1.98785e-016 -141.662 -72.8924 -58.8707 6.6249 9.95911 1.812 0.368473 9.90896 -0.00117933 14.6629 -0.836696 -7.38499 131.188 -38.571 56.4578 -21.493 1.52117 9.20655 -0.369625 9.91382 0.00119893 -1.38776 -18.6723 -20.2616 -3.81925 4.94432 16.2723 -3.58615 -0.351155 0.141806 -8.71743 5.84348 1.44405 
131.769 95.4057 263.138 -0.687597 5.80342 175.794 6.96207 6.6865 9.51285 3.3771 20.4376 -8.25327 5.3128 -11.5966 0.155565 -1.16084 -6.16606 0.788231 0.834093 4.01002 1.9706 3.44594 10.7054 1.27185 -12.9352 29.3519 2.38315 -2.08724e-015 1.59028e-015 -0 -141.829 -72.9266 -58.5056 6.79583 9.92875 1.74235 0.368473 9.90896 -0.00117933 14.9999 -0.907113 -7.65217 130.905 -37.3988 56.6202 -21.6457 1.65166 8.77648 -0.369625 9.91382 0.00119893 -1.47211 -18.1178 -19.2722 -3.01178 3.12858 15.9567 -3.4707 -0.658463 0.130096 -9.56376 5.73171 1.77474 
